# xmcd
#
# Track frame offsets:
# 225
# 17924
# 42123
# 56094
# 79393
# 98087
# 120132
# 134031
# 160918
# 185982
#
# Disc length: 2754 seconds
#
#
# Revision: 0
# Processed by: cddbd v1.5.2PL0 Copyright (c) Steve Scherf et al.
# Submitted via: FreeRIP 2.945 
#
DISCID=880abf0a
DTITLE=Vários - O Melhor da Música Portuguesa ao Vivo
DYEAR=2007
DGENRE=Pop
TTITLE0=Chuva Dissolvente - Xutos e Pontapés
TTITLE1=Morte ao Sol - GNR
TTITLE2=O Corpo é que Paga - Humanos
TTITLE3=Não Posso - Pedro Abrunhosa e Bandemónio
TTITLE4=Todagente - Da Weasel
TTITLE5=Noutro Lugar - Sétima Legião
TTITLE6=Espectáculo - Clã e Sérgio Godinho
TTITLE7=Entre a Espada e a Parede - Rádio Macau
TTITLE8=Momento Final - Santos e Pecadores
TTITLE9=Sayago Blues - Rui Veloso
EXTD=
EXTT0=
EXTT1=
EXTT2=
EXTT3=
EXTT4=
EXTT5=
EXTT6=
EXTT7=
EXTT8=
EXTT9=
PLAYORDER=
